<svg width="29" height="19" viewBox="0 0 29 19" xmlns="http://www.w3.org/2000/svg">
    <path d="m10.55 0 .269.255c-4.41 1.007-6.41 2.892-6.41 2.892.204-.041 9.11-4.959 19.901.124 0 0-2.004-1.763-6.143-2.892l.366-.344c.572.001 3.6.103 6.841 2.37 0 0 3.626 5.929 3.626 13.211-.12-.139-2.25 3.136-7.73 3.249 0 0-.928-1.005-1.589-1.882 3.206-.881 4.405-2.642 4.405-2.642-6.24 3.76-11.708 3.172-18.25.632-.06 0-.088-.027-.12-.057v-.01c-.031-.03-.059-.057-.12-.057h-.118c-.4-.253-.668-.377-.668-.377s1.197 1.762 4.275 2.642C8.276 17.997 7.476 19 7.476 19 1.998 18.876 0 15.601 0 15.601c0-7.294 3.604-13.21 3.604-13.21C6.728.215 9.654.015 10.38 0h.17zm8.374 8.237v.006l-.17.005c-1.346.084-2.421 1.164-2.425 2.487 0 1.366 1.165 2.484 2.595 2.484 1.43 0 2.596-1.118 2.596-2.496 0-1.368-1.159-2.486-2.596-2.486zm-8.99 0-.008.006-.17.005c-1.352.084-2.425 1.164-2.425 2.487 0 1.366 1.165 2.484 2.595 2.484 1.43 0 2.596-1.118 2.596-2.496 0-1.368-1.157-2.486-2.588-2.486z" fill="#FFF" fill-rule="nonzero"/>
</svg>
